<svg xmlns="http://www.w3.org/2000/svg" xmlns:xlink="http://www.w3.org/1999/xlink" width="63" height="63" version="1.1" viewBox="0 0 63 63"><title>ephox</title><desc>Created with Sketch.</desc><g id="Page-1" fill="none" fill-rule="evenodd" stroke="none" stroke-width="1"><g id="ephox"><path id="Shape" fill="#FDBD00" d="M31.75,47.1 C31.75,55.6604136 24.8104136,62.6 16.25,62.6 C7.68958638,62.6 0.75,55.6604136 0.75,47.1 C0.75,38.5395864 7.68958638,31.6 16.25,31.6 L31.75,31.6 L31.75,47.1 Z"/><path id="Shape" fill="#7AC91D" d="M47.25,31.6 C55.8104136,31.6 62.75,24.6604136 62.75,16.1 C62.75,7.53958638 55.8104136,0.6 47.25,0.6 C38.6895864,0.6 31.75,7.53958638 31.75,16.1 L31.75,31.6 L47.25,31.6 Z"/><path id="Shape" fill="#1BA1DB" d="M61.75,49.6 C61.75,56.227417 56.377417,61.6 49.75,61.6 C43.122583,61.6 37.75,56.227417 37.75,49.6 L37.75,37.6 L49.75,37.6 C56.377417,37.6 61.75,42.972583 61.75,49.6 Z"/><path id="Shape" fill="#FD4B87" d="M24.75,13.1 L24.75,24.6 L13.25,24.6 C6.89872538,24.6 1.75,19.4512746 1.75,13.1 C1.75,6.74872538 6.89872538,1.6 13.25,1.6 C19.6012746,1.6 24.75,6.74872538 24.75,13.1 Z"/></g></g></svg>